{"title":"The Amazing Spiderman 2 - 2014 (No Cinavia) 1080p AAC2.0","uid":10987774,"size":2210486263,"categoryP":"video","categoryS":"hd___movies","magnet":"?xt=urn:btih:1a1b11a1aa717c65ef77688c9d0e8f92ffbdcbfc&amp;dn=The+Amazing+Spiderman+2+-+2014+%28No+Cinavia%29+1080p+AAC2.0&amp;tr=udp%3A%2F%2Ftracker.openbittorrent.com%3A80&amp;tr=udp%3A%2F%2Fopen.demonii.com%3A1337&amp;tr=udp%3A%2F%2Ftracker.coppersurfer.tk%3A6969&amp;tr=udp%3A%2F%2Fexodus.desync.com%3A6969","seeders":10,"leechers":3,"uploader":"AlienMethod","files":-1,"time":1409943545,"description":"Cinavia Removed/CinExHD\n(Credit to Yify-Torrents for Original File Prior to Cinavia Processing)\nMP4/AAC2.0 (2-channel Audio)\n\nVideo\nID : 1\nFormat : AVC\nFormat/Info : Advanced Video Codec\nFormat profile : &lt;a class=&quot;__cf_email__&quot; href=&quot;/cdn-cgi/l/email-protection&quot; data-cfemail=&quot;0d45646a654d4139233c&quot;&gt;[email&amp;#160;protected]&lt;/a&gt;&lt;script cf-hash='f9e31' type=&quot;text/javascript&quot;&gt;\n/* &lt;![CDATA[ */!function(){try{var t=&quot;currentScript&quot;in document?document.currentScript:function(){for(var t=document.getElementsByTagName(&quot;script&quot;),e=t.length;e--;)if(t[e].getAttribute(&quot;cf-hash&quot;))return t[e]}();if(t&amp;&amp;t.previousSibling){var e,r,n,i,c=t.previousSibling,a=c.getAttribute(&quot;data-cfemail&quot;);if(a){for(e=&quot;&quot;,r=parseInt(a.substr(0,2),16),n=2;a.length-n;n+=2)i=parseInt(a.substr(n,2),16)^r,e+=String.fromCharCode(i);e=document.createTextNode(e),c.parentNode.replaceChild(e,c)}}}catch(u){}}();/* ]]&gt; */&lt;/script&gt;\nFormat settings, CABAC : Yes\nFormat settings, ReFrames : 4 frames\nCodec ID : avc1\nCodec ID/Info : Advanced Video Coding\nDuration : 2h 21mn\nBit rate : 1 983 Kbps\nWidth : 1 920 pixels\nHeight : 800 pixels\nDisplay aspect ratio : 2.40:1\nFrame rate mode : Variable\nFrame rate : 23.976 fps\nMinimum frame rate : 23.976 fps\nMaximum frame rate : 24.024 fps\nColor space : YUV\nChroma subsampling : 4:2:0\nBit depth : 8 bits\nScan type : Progressive\nBits/(Pixel*Frame) : 0.054\nStream size : 1.96 GiB (95%)\nWriting library : x264 core 142 r2409 d6b4e63\nColor primaries : BT.709\nMatrix coefficients : BT.709\n\nAudio\nID : 2\nFormat : AAC\nFormat/Info : Advanced Audio Codec\nFormat profile : LC\nCodec ID : 40\nDuration : 2h 21mn\nBit rate mode : Variable\nBit rate : 93.8 Kbps\nMaximum bit rate : 375 Kbps\nChannel(s) : 2 channels\nChannel positions : Front: L R\nSampling rate : 48.0 KHz\nCompression mode : Lossy\nStream size : 95.0 MiB (5%)\n\nm/ AM m/","torrent":{"xt":"urn:btih:1a1b11a1aa717c65ef77688c9d0e8f92ffbdcbfc","amp;dn":"The+Amazing+Spiderman+2+-+2014+%28No+Cinavia%29+1080p+AAC2.0","amp;tr":["udp%3A%2F%2Ftracker.openbittorrent.com%3A80","udp%3A%2F%2Fopen.demonii.com%3A1337","udp%3A%2F%2Ftracker.coppersurfer.tk%3A6969","udp%3A%2F%2Fexodus.desync.com%3A6969"],"infoHash":"1a1b11a1aa717c65ef77688c9d0e8f92ffbdcbfc","infoHashBuffer":{"type":"Buffer","data":[26,27,17,161,170,113,124,101,239,119,104,140,157,14,143,146,255,189,203,252]},"announce":[],"urlList":[]}}